<svg xmlns="http://www.w3.org/2000/svg" xmlns:xlink="http://www.w3.org/1999/xlink" version="1.1" width="256" height="256" viewBox="0 0 256 256" xml:space="preserve">

<defs>
</defs>
<g style="stroke: none; stroke-width: 0; stroke-dasharray: none; stroke-linecap: butt; stroke-linejoin: miter; stroke-miterlimit: 10; fill: none; fill-rule: nonzero; opacity: 1;" transform="translate(1.4065934065934016 1.4065934065934016) scale(2.81 2.81)" >
	<path d="M 81.951 32.927 c -0.291 -1.575 -3.039 -3.151 -8.252 -4.726 c 0.566 -1.021 0.606 -2.39 0.073 -3.861 c -0.21 -0.58 -0.989 -0.681 -1.36 -0.188 c -1.914 2.545 -5.4 4.049 -8.421 4.049 h -4.174 H 49.726 V 17.96 c 0 -3.021 1.504 -6.506 4.049 -8.421 c 0.493 -0.371 0.392 -1.15 -0.188 -1.36 c -1.471 -0.533 -2.84 -0.493 -3.861 0.073 C 48.151 3.039 46.575 0.291 45 0 c -1.575 0.291 -3.151 3.039 -4.726 8.252 c -1.021 -0.566 -2.39 -0.606 -3.861 -0.073 c -0.58 0.21 -0.681 0.989 -0.188 1.36 c 2.545 1.914 4.049 5.4 4.049 8.421 v 10.241 H 30.183 h -4.174 c -3.021 0 -6.506 -1.504 -8.421 -4.049 c -0.371 -0.493 -1.15 -0.392 -1.36 0.188 c -0.533 1.471 -0.493 2.84 0.073 3.861 c -5.213 1.575 -7.961 3.151 -8.252 4.726 c 0.291 1.575 3.039 3.151 8.252 4.726 c -0.566 1.021 -0.606 2.39 -0.073 3.861 c 0.21 0.58 0.989 0.681 1.36 0.188 c 1.914 -2.545 5.4 -4.049 8.421 -4.049 h 4.174 h 10.091 v 0.579 v 13.537 V 72.04 c 0 3.021 -1.504 6.506 -4.049 8.421 c -0.493 0.371 -0.392 1.15 0.188 1.36 c 1.471 0.533 2.84 0.493 3.861 -0.073 C 41.849 86.961 43.425 89.709 45 90 c 1.575 -0.291 3.151 -3.039 4.726 -8.252 c 1.021 0.566 2.39 0.606 3.861 0.073 c 0.58 -0.21 0.681 -0.989 0.188 -1.36 c -2.545 -1.914 -4.049 -5.4 -4.049 -8.421 V 51.768 V 38.232 v -0.579 h 10.091 h 4.174 c 3.021 0 6.506 1.504 8.421 4.049 c 0.371 0.493 1.15 0.392 1.36 -0.188 c 0.533 -1.471 0.493 -2.84 -0.073 -3.861 C 78.912 36.077 81.661 34.502 81.951 32.927 z" style="stroke: none; stroke-width: 1; stroke-dasharray: none; stroke-linecap: butt; stroke-linejoin: miter; stroke-miterlimit: 10; fill: rgb(0,0,0); fill-rule: nonzero; opacity: 1;" transform=" matrix(1 0 0 1 0 0) " stroke-linecap="round" />
</g>
</svg>